<mxfile host="www.draw.io" modified="2019-10-20T20:21:13.044Z" agent="Mozilla/5.0 (Windows NT 10.0; Win64; x64; rv:69.0) Gecko/20100101 Firefox/69.0" etag="yE5Ipz3i8RgU0--Z7FUm" version="12.1.3" type="github" pages="1">
  <diagram id="fXuAVrspEKafF17kZ9Ae" name="Page-1">
    <mxGraphModel dx="1821" dy="1156" grid="1" gridSize="10" guides="1" tooltips="1" connect="1" arrows="1" fold="1" page="1" pageScale="1" pageWidth="827" pageHeight="1169" math="0" shadow="0">
      <root>
        <mxCell id="0"/>
        <mxCell id="1" parent="0"/>
        <mxCell id="LsSuy4AF0oOqetUuykuO-6" value="" style="edgeStyle=orthogonalEdgeStyle;rounded=0;orthogonalLoop=1;jettySize=auto;html=1;" parent="1" source="LsSuy4AF0oOqetUuykuO-1" target="LsSuy4AF0oOqetUuykuO-5" edge="1">
          <mxGeometry relative="1" as="geometry">
            <Array as="points">
              <mxPoint x="440" y="240"/>
              <mxPoint x="440" y="240"/>
            </Array>
          </mxGeometry>
        </mxCell>
        <mxCell id="LsSuy4AF0oOqetUuykuO-7" value="&lt;div&gt;&lt;u&gt;&lt;font style=&quot;font-size: 9px&quot;&gt;sampled_bit == 0&lt;br&gt;&lt;/font&gt;&lt;/u&gt;&lt;font style=&quot;font-size: 9px&quot;&gt;reset frame_buf&lt;/font&gt;&lt;u&gt;&lt;font style=&quot;font-size: 9px&quot;&gt;[]&lt;br&gt;&lt;/font&gt;&lt;/u&gt;&lt;/div&gt;" style="text;html=1;resizable=0;points=[];align=center;verticalAlign=middle;labelBackgroundColor=#ffffff;" parent="LsSuy4AF0oOqetUuykuO-6" vertex="1" connectable="0">
          <mxGeometry x="-0.2369" relative="1" as="geometry">
            <mxPoint x="15.5" y="-20" as="offset"/>
          </mxGeometry>
        </mxCell>
        <mxCell id="LsSuy4AF0oOqetUuykuO-1" value="Bus idle" style="ellipse;whiteSpace=wrap;html=1;aspect=fixed;" parent="1" vertex="1">
          <mxGeometry x="310" y="190" width="100" height="100" as="geometry"/>
        </mxCell>
        <mxCell id="LsSuy4AF0oOqetUuykuO-37" value="" style="edgeStyle=orthogonalEdgeStyle;rounded=0;orthogonalLoop=1;jettySize=auto;html=1;" parent="1" source="LsSuy4AF0oOqetUuykuO-5" target="LsSuy4AF0oOqetUuykuO-36" edge="1">
          <mxGeometry relative="1" as="geometry"/>
        </mxCell>
        <mxCell id="LsSuy4AF0oOqetUuykuO-42" value="&lt;div&gt;&lt;span class=&quot;st&quot;&gt;ε&lt;/span&gt;&lt;/div&gt;" style="text;html=1;resizable=0;points=[];align=center;verticalAlign=middle;labelBackgroundColor=#ffffff;" parent="LsSuy4AF0oOqetUuykuO-37" vertex="1" connectable="0">
          <mxGeometry x="-0.2096" y="1" relative="1" as="geometry">
            <mxPoint x="6.5" y="-10.5" as="offset"/>
          </mxGeometry>
        </mxCell>
        <mxCell id="LsSuy4AF0oOqetUuykuO-5" value="Start-of-frame&lt;font style=&quot;font-size: 8px&quot;&gt;&lt;br&gt;&lt;/font&gt;" style="ellipse;whiteSpace=wrap;html=1;aspect=fixed;" parent="1" vertex="1">
          <mxGeometry x="590" y="180" width="103" height="103" as="geometry"/>
        </mxCell>
        <mxCell id="LsSuy4AF0oOqetUuykuO-36" value="Identifier I" style="ellipse;whiteSpace=wrap;html=1;aspect=fixed;" parent="1" vertex="1">
          <mxGeometry x="840" y="180" width="103" height="103" as="geometry"/>
        </mxCell>
        <mxCell id="1vsY7tQlQi9XiLT0RHJ2-83" value="" style="edgeStyle=orthogonalEdgeStyle;curved=1;rounded=0;orthogonalLoop=1;jettySize=auto;html=1;" edge="1" parent="1" source="1vsY7tQlQi9XiLT0RHJ2-1" target="1vsY7tQlQi9XiLT0RHJ2-82">
          <mxGeometry relative="1" as="geometry"/>
        </mxCell>
        <mxCell id="1vsY7tQlQi9XiLT0RHJ2-84" value="&lt;font style=&quot;font-size: 9px&quot;&gt;consec_same_polarity_bits &amp;gt; 5&lt;/font&gt;" style="text;html=1;resizable=0;points=[];align=center;verticalAlign=middle;labelBackgroundColor=#ffffff;" vertex="1" connectable="0" parent="1vsY7tQlQi9XiLT0RHJ2-83">
          <mxGeometry x="-0.1939" y="9" relative="1" as="geometry">
            <mxPoint x="-9" y="-20.5" as="offset"/>
          </mxGeometry>
        </mxCell>
        <mxCell id="1vsY7tQlQi9XiLT0RHJ2-1" value="Bit stuffing" style="ellipse;whiteSpace=wrap;html=1;aspect=fixed;" vertex="1" parent="1">
          <mxGeometry x="550" y="565" width="153" height="153" as="geometry"/>
        </mxCell>
        <mxCell id="1vsY7tQlQi9XiLT0RHJ2-85" style="edgeStyle=orthogonalEdgeStyle;curved=1;rounded=0;orthogonalLoop=1;jettySize=auto;html=1;exitX=0;exitY=0.5;exitDx=0;exitDy=0;entryX=0.5;entryY=1;entryDx=0;entryDy=0;" edge="1" parent="1" source="1vsY7tQlQi9XiLT0RHJ2-82" target="LsSuy4AF0oOqetUuykuO-23">
          <mxGeometry relative="1" as="geometry"/>
        </mxCell>
        <mxCell id="1vsY7tQlQi9XiLT0RHJ2-88" value="&lt;div&gt;&lt;font style=&quot;font-size: 9px&quot;&gt;transmit error/overload frames&lt;/font&gt;&lt;/div&gt;&lt;div&gt;&lt;font style=&quot;font-size: 9px&quot;&gt;&amp;amp;&amp;amp; set error/overload flags&lt;br&gt;&lt;/font&gt;&lt;/div&gt;" style="text;html=1;resizable=0;points=[];align=center;verticalAlign=middle;labelBackgroundColor=#ffffff;" vertex="1" connectable="0" parent="1vsY7tQlQi9XiLT0RHJ2-85">
          <mxGeometry x="-0.3835" y="-53" relative="1" as="geometry">
            <mxPoint x="17" y="-54" as="offset"/>
          </mxGeometry>
        </mxCell>
        <mxCell id="1vsY7tQlQi9XiLT0RHJ2-82" value="Error" style="ellipse;whiteSpace=wrap;html=1;aspect=fixed;" vertex="1" parent="1">
          <mxGeometry x="270" y="590" width="103" height="103" as="geometry"/>
        </mxCell>
        <mxCell id="LsSuy4AF0oOqetUuykuO-48" value="Identifier extension" style="ellipse;whiteSpace=wrap;html=1;aspect=fixed;" parent="1" vertex="1">
          <mxGeometry x="1204" y="360" width="103" height="103" as="geometry"/>
        </mxCell>
        <mxCell id="LsSuy4AF0oOqetUuykuO-64" value="Identifier II" style="ellipse;whiteSpace=wrap;html=1;aspect=fixed;" parent="1" vertex="1">
          <mxGeometry x="1014.5" y="560" width="103" height="103" as="geometry"/>
        </mxCell>
        <mxCell id="LsSuy4AF0oOqetUuykuO-61" value="Data length code " style="ellipse;whiteSpace=wrap;html=1;aspect=fixed;" parent="1" vertex="1">
          <mxGeometry x="1330" y="656" width="103" height="103" as="geometry"/>
        </mxCell>
        <mxCell id="CigY5o_EXDTEon-3jBMa-17" value="" style="edgeStyle=orthogonalEdgeStyle;rounded=0;orthogonalLoop=1;jettySize=auto;html=1;" parent="1" source="LsSuy4AF0oOqetUuykuO-85" target="CigY5o_EXDTEon-3jBMa-16" edge="1">
          <mxGeometry relative="1" as="geometry"/>
        </mxCell>
        <mxCell id="CigY5o_EXDTEon-3jBMa-18" value="&lt;font style=&quot;font-size: 9px&quot;&gt;bit_cnt == 15 &amp;amp;&amp;amp; valid CRC&lt;br&gt;&lt;/font&gt;" style="text;html=1;resizable=0;points=[];align=center;verticalAlign=middle;labelBackgroundColor=#ffffff;" parent="CigY5o_EXDTEon-3jBMa-17" vertex="1" connectable="0">
          <mxGeometry x="-0.25" y="1" relative="1" as="geometry">
            <mxPoint x="-66.5" y="-12.5" as="offset"/>
          </mxGeometry>
        </mxCell>
        <mxCell id="LsSuy4AF0oOqetUuykuO-85" value="CRC" style="ellipse;whiteSpace=wrap;html=1;aspect=fixed;" parent="1" vertex="1">
          <mxGeometry x="1190" y="970" width="103" height="103" as="geometry"/>
        </mxCell>
        <mxCell id="CigY5o_EXDTEon-3jBMa-16" value="CRC delimiter" style="ellipse;whiteSpace=wrap;html=1;aspect=fixed;" parent="1" vertex="1">
          <mxGeometry x="511" y="970" width="103" height="103" as="geometry"/>
        </mxCell>
        <mxCell id="1vsY7tQlQi9XiLT0RHJ2-86" style="edgeStyle=orthogonalEdgeStyle;curved=1;rounded=0;orthogonalLoop=1;jettySize=auto;html=1;exitX=0;exitY=0.5;exitDx=0;exitDy=0;entryX=0.5;entryY=1;entryDx=0;entryDy=0;" edge="1" parent="1" source="CigY5o_EXDTEon-3jBMa-22" target="CigY5o_EXDTEon-3jBMa-28">
          <mxGeometry relative="1" as="geometry"/>
        </mxCell>
        <mxCell id="1vsY7tQlQi9XiLT0RHJ2-87" value="&lt;div&gt;&lt;u&gt;&lt;span class=&quot;st&quot;&gt;____ε____&lt;/span&gt;&lt;/u&gt;&lt;/div&gt;&lt;font style=&quot;font-size: 9px&quot;&gt;write &quot;0&quot; to bus&lt;/font&gt; " style="text;html=1;resizable=0;points=[];align=center;verticalAlign=middle;labelBackgroundColor=#ffffff;" vertex="1" connectable="0" parent="1vsY7tQlQi9XiLT0RHJ2-86">
          <mxGeometry x="-0.0723" y="-9" relative="1" as="geometry">
            <mxPoint x="-18" y="17" as="offset"/>
          </mxGeometry>
        </mxCell>
        <mxCell id="CigY5o_EXDTEon-3jBMa-22" value="ACK slot" style="ellipse;whiteSpace=wrap;html=1;aspect=fixed;" parent="1" vertex="1">
          <mxGeometry x="258.5" y="970" width="103" height="103" as="geometry"/>
        </mxCell>
        <mxCell id="CigY5o_EXDTEon-3jBMa-31" value="" style="edgeStyle=orthogonalEdgeStyle;rounded=0;orthogonalLoop=1;jettySize=auto;html=1;" parent="1" source="CigY5o_EXDTEon-3jBMa-28" target="CigY5o_EXDTEon-3jBMa-30" edge="1">
          <mxGeometry relative="1" as="geometry">
            <Array as="points">
              <mxPoint x="129" y="813"/>
              <mxPoint x="129" y="813"/>
            </Array>
          </mxGeometry>
        </mxCell>
        <mxCell id="CigY5o_EXDTEon-3jBMa-33" value="&lt;div&gt;&lt;span class=&quot;st&quot;&gt;ε&lt;/span&gt;&lt;/div&gt;" style="text;html=1;resizable=0;points=[];align=center;verticalAlign=middle;labelBackgroundColor=#ffffff;" parent="CigY5o_EXDTEon-3jBMa-31" vertex="1" connectable="0">
          <mxGeometry x="-0.2538" y="-2" relative="1" as="geometry">
            <mxPoint x="-11" as="offset"/>
          </mxGeometry>
        </mxCell>
        <mxCell id="CigY5o_EXDTEon-3jBMa-28" value="ACK delimiter" style="ellipse;whiteSpace=wrap;html=1;aspect=fixed;" parent="1" vertex="1">
          <mxGeometry x="77" y="853" width="103" height="103" as="geometry"/>
        </mxCell>
        <mxCell id="CigY5o_EXDTEon-3jBMa-30" value="End-of-frame" style="ellipse;whiteSpace=wrap;html=1;aspect=fixed;" parent="1" vertex="1">
          <mxGeometry x="77" y="670" width="103" height="103" as="geometry"/>
        </mxCell>
        <mxCell id="LsSuy4AF0oOqetUuykuO-79" value="Data" style="ellipse;whiteSpace=wrap;html=1;aspect=fixed;" parent="1" vertex="1">
          <mxGeometry x="1014.5" y="800" width="103" height="103" as="geometry"/>
        </mxCell>
        <mxCell id="LsSuy4AF0oOqetUuykuO-4" value="" style="endArrow=classic;html=1;" parent="1" edge="1">
          <mxGeometry width="50" height="50" relative="1" as="geometry">
            <mxPoint x="360" y="140" as="sourcePoint"/>
            <mxPoint x="359.5" y="190" as="targetPoint"/>
          </mxGeometry>
        </mxCell>
        <mxCell id="LsSuy4AF0oOqetUuykuO-15" value="" style="curved=1;endArrow=classic;html=1;entryX=0.027;entryY=0.311;entryDx=0;entryDy=0;exitX=0;exitY=0.5;exitDx=0;exitDy=0;entryPerimeter=0;" parent="1" source="LsSuy4AF0oOqetUuykuO-1" target="LsSuy4AF0oOqetUuykuO-1" edge="1">
          <mxGeometry width="50" height="50" relative="1" as="geometry">
            <mxPoint x="310" y="250" as="sourcePoint"/>
            <mxPoint x="310" y="200" as="targetPoint"/>
            <Array as="points">
              <mxPoint x="290" y="244"/>
              <mxPoint x="270" y="235"/>
              <mxPoint x="280" y="220"/>
            </Array>
          </mxGeometry>
        </mxCell>
        <mxCell id="LsSuy4AF0oOqetUuykuO-21" value="&lt;div&gt;&lt;font style=&quot;font-size: 9px&quot;&gt;sampled_bit == 1&lt;br&gt;&lt;/font&gt;&lt;/div&gt;" style="text;html=1;resizable=0;points=[];align=center;verticalAlign=middle;labelBackgroundColor=#ffffff;direction=south;" parent="1" vertex="1" connectable="0">
          <mxGeometry x="209.92857142857144" y="250" as="geometry">
            <mxPoint x="18.5" y="-15" as="offset"/>
          </mxGeometry>
        </mxCell>
        <mxCell id="LsSuy4AF0oOqetUuykuO-30" value="" style="edgeStyle=orthogonalEdgeStyle;rounded=0;orthogonalLoop=1;jettySize=auto;html=1;" parent="1" source="LsSuy4AF0oOqetUuykuO-23" target="LsSuy4AF0oOqetUuykuO-29" edge="1">
          <mxGeometry relative="1" as="geometry"/>
        </mxCell>
        <mxCell id="LsSuy4AF0oOqetUuykuO-23" value="Intermission" style="ellipse;whiteSpace=wrap;html=1;aspect=fixed;" parent="1" vertex="1">
          <mxGeometry x="190" y="350" width="100" height="100" as="geometry"/>
        </mxCell>
        <mxCell id="LsSuy4AF0oOqetUuykuO-29" value="Suspend transmission" style="ellipse;whiteSpace=wrap;html=1;aspect=fixed;" parent="1" vertex="1">
          <mxGeometry x="440" y="350" width="100" height="100" as="geometry"/>
        </mxCell>
        <mxCell id="LsSuy4AF0oOqetUuykuO-24" value="" style="curved=1;endArrow=classic;html=1;entryX=0;entryY=1;entryDx=0;entryDy=0;exitX=0.5;exitY=0;exitDx=0;exitDy=0;" parent="1" source="LsSuy4AF0oOqetUuykuO-23" target="LsSuy4AF0oOqetUuykuO-1" edge="1">
          <mxGeometry width="50" height="50" relative="1" as="geometry">
            <mxPoint x="270" y="341.5" as="sourcePoint"/>
            <mxPoint x="320" y="291.5" as="targetPoint"/>
            <Array as="points">
              <mxPoint x="270" y="291.5"/>
            </Array>
          </mxGeometry>
        </mxCell>
        <mxCell id="LsSuy4AF0oOqetUuykuO-25" value="&lt;font style=&quot;font-size: 9px&quot;&gt;recessive_bit_cnt == 3&lt;/font&gt;" style="text;html=1;resizable=0;points=[];align=center;verticalAlign=middle;labelBackgroundColor=#ffffff;" parent="LsSuy4AF0oOqetUuykuO-24" vertex="1" connectable="0">
          <mxGeometry x="-0.3526" y="-6" relative="1" as="geometry">
            <mxPoint x="-56" y="-3" as="offset"/>
          </mxGeometry>
        </mxCell>
        <mxCell id="LsSuy4AF0oOqetUuykuO-26" value="" style="curved=1;endArrow=classic;html=1;entryX=0;entryY=1;entryDx=0;entryDy=0;exitX=0.37;exitY=0.983;exitDx=0;exitDy=0;exitPerimeter=0;" parent="1" source="LsSuy4AF0oOqetUuykuO-29" target="LsSuy4AF0oOqetUuykuO-29" edge="1">
          <mxGeometry width="50" height="50" relative="1" as="geometry">
            <mxPoint x="474.29999999999995" y="511" as="sourcePoint"/>
            <mxPoint x="473.5999999999999" y="492.29999999999995" as="targetPoint"/>
            <Array as="points">
              <mxPoint x="470" y="470"/>
              <mxPoint x="450" y="470"/>
            </Array>
          </mxGeometry>
        </mxCell>
        <mxCell id="LsSuy4AF0oOqetUuykuO-28" value="&lt;div&gt;&lt;u&gt;&lt;font style=&quot;font-size: 9px&quot;&gt;sampled_bit == 1&lt;br&gt;&lt;/font&gt;&lt;/u&gt;&lt;font style=&quot;font-size: 9px&quot;&gt;recessive_bit_cnt++&lt;/font&gt;&lt;u&gt;&lt;font style=&quot;font-size: 9px&quot;&gt;&lt;br&gt;&lt;/font&gt;&lt;/u&gt;&lt;/div&gt;" style="text;html=1;resizable=0;points=[];align=center;verticalAlign=middle;labelBackgroundColor=#ffffff;direction=south;" parent="1" vertex="1" connectable="0">
          <mxGeometry x="119.92857142857144" y="420" as="geometry">
            <mxPoint x="-3.5" y="-12" as="offset"/>
          </mxGeometry>
        </mxCell>
        <mxCell id="LsSuy4AF0oOqetUuykuO-31" value="" style="curved=1;endArrow=classic;html=1;entryX=1;entryY=1;entryDx=0;entryDy=0;exitX=0.5;exitY=0;exitDx=0;exitDy=0;" parent="1" source="LsSuy4AF0oOqetUuykuO-29" target="LsSuy4AF0oOqetUuykuO-1" edge="1">
          <mxGeometry width="50" height="50" relative="1" as="geometry">
            <mxPoint x="430.0000000000001" y="350" as="sourcePoint"/>
            <mxPoint x="484.6446609406745" y="275.3553390593256" as="targetPoint"/>
            <Array as="points">
              <mxPoint x="450" y="291"/>
            </Array>
          </mxGeometry>
        </mxCell>
        <mxCell id="LsSuy4AF0oOqetUuykuO-32" value="&lt;font style=&quot;font-size: 9px&quot;&gt;recessive_bit_cnt == 8&lt;/font&gt;" style="text;html=1;resizable=0;points=[];align=center;verticalAlign=middle;labelBackgroundColor=#ffffff;" parent="LsSuy4AF0oOqetUuykuO-31" vertex="1" connectable="0">
          <mxGeometry x="-0.3526" y="-6" relative="1" as="geometry">
            <mxPoint x="48.5" y="8" as="offset"/>
          </mxGeometry>
        </mxCell>
        <mxCell id="LsSuy4AF0oOqetUuykuO-33" value="&lt;font style=&quot;font-size: 9px&quot;&gt;recessive_bit_cnt == 3&lt;/font&gt;&lt;br&gt;&lt;font style=&quot;font-size: 9px&quot;&gt;&amp;amp;&amp;amp; error_passive&lt;/font&gt;" style="text;html=1;resizable=0;points=[];align=center;verticalAlign=middle;labelBackgroundColor=#ffffff;" parent="1" vertex="1" connectable="0">
          <mxGeometry x="-0.3526" y="-6" relative="1" as="geometry">
            <mxPoint x="360" y="420" as="offset"/>
          </mxGeometry>
        </mxCell>
        <mxCell id="LsSuy4AF0oOqetUuykuO-35" value="" style="curved=1;endArrow=classic;html=1;entryX=0.5;entryY=1;entryDx=0;entryDy=0;exitX=1;exitY=0.5;exitDx=0;exitDy=0;" parent="1" source="LsSuy4AF0oOqetUuykuO-29" target="LsSuy4AF0oOqetUuykuO-5" edge="1">
          <mxGeometry width="50" height="50" relative="1" as="geometry">
            <mxPoint x="570" y="360" as="sourcePoint"/>
            <mxPoint x="620" y="310" as="targetPoint"/>
            <Array as="points">
              <mxPoint x="620" y="370"/>
            </Array>
          </mxGeometry>
        </mxCell>
        <mxCell id="LsSuy4AF0oOqetUuykuO-38" value="&lt;div&gt;&lt;u&gt;&lt;font style=&quot;font-size: 9px&quot;&gt;sampled_bit == 1&lt;br&gt;&lt;/font&gt;&lt;/u&gt;&lt;font style=&quot;font-size: 9px&quot;&gt;recessive_bit_cnt++&lt;/font&gt;&lt;u&gt;&lt;font style=&quot;font-size: 9px&quot;&gt;&lt;br&gt;&lt;/font&gt;&lt;/u&gt;&lt;/div&gt;" style="text;html=1;resizable=0;points=[];align=center;verticalAlign=middle;labelBackgroundColor=#ffffff;direction=south;" parent="1" vertex="1" connectable="0">
          <mxGeometry x="439.92857142857144" y="510" as="geometry">
            <mxPoint x="18.5" y="-15" as="offset"/>
          </mxGeometry>
        </mxCell>
        <mxCell id="LsSuy4AF0oOqetUuykuO-40" value="&lt;div&gt;&lt;u&gt;&lt;font style=&quot;font-size: 9px&quot;&gt;sampled_bit == 0&lt;br&gt;&lt;/font&gt;&lt;/u&gt;&lt;font style=&quot;font-size: 9px&quot;&gt;reset frame_buf&lt;/font&gt;&lt;u&gt;&lt;font style=&quot;font-size: 9px&quot;&gt;[]&lt;br&gt;&lt;/font&gt;&lt;/u&gt;&lt;/div&gt;" style="text;html=1;resizable=0;points=[];align=center;verticalAlign=middle;labelBackgroundColor=#ffffff;" parent="1" vertex="1" connectable="0">
          <mxGeometry x="-0.2369" relative="1" as="geometry">
            <mxPoint x="660" y="350" as="offset"/>
          </mxGeometry>
        </mxCell>
        <mxCell id="LsSuy4AF0oOqetUuykuO-43" value="" style="curved=1;endArrow=classic;html=1;entryX=0.248;entryY=0.063;entryDx=0;entryDy=0;entryPerimeter=0;exitX=0.65;exitY=0.03;exitDx=0;exitDy=0;exitPerimeter=0;" parent="1" source="LsSuy4AF0oOqetUuykuO-36" target="LsSuy4AF0oOqetUuykuO-36" edge="1">
          <mxGeometry width="50" height="50" relative="1" as="geometry">
            <mxPoint x="909" y="180" as="sourcePoint"/>
            <mxPoint x="900" y="160" as="targetPoint"/>
            <Array as="points">
              <mxPoint x="890" y="140"/>
            </Array>
          </mxGeometry>
        </mxCell>
        <mxCell id="LsSuy4AF0oOqetUuykuO-44" value="&lt;div&gt;&lt;font style=&quot;font-size: 9px&quot;&gt;&lt;font style=&quot;font-size: 9px&quot;&gt;frame_buf[] += sampled_bit &lt;/font&gt;&amp;amp;&amp;amp; &lt;/font&gt;&lt;font style=&quot;font-size: 9px&quot;&gt;&lt;font style=&quot;font-size: 9px&quot;&gt;bit_cnt++&lt;/font&gt;&lt;br&gt;&lt;/font&gt;&lt;/div&gt;" style="text;html=1;resizable=0;points=[];align=center;verticalAlign=middle;labelBackgroundColor=#ffffff;" parent="LsSuy4AF0oOqetUuykuO-43" vertex="1" connectable="0">
          <mxGeometry x="-0.4688" y="10" relative="1" as="geometry">
            <mxPoint x="3.5" y="-12.5" as="offset"/>
          </mxGeometry>
        </mxCell>
        <mxCell id="LsSuy4AF0oOqetUuykuO-69" value="" style="curved=1;endArrow=classic;html=1;entryX=0.047;entryY=0.687;entryDx=0;entryDy=0;entryPerimeter=0;exitX=0.007;exitY=0.385;exitDx=0;exitDy=0;exitPerimeter=0;" parent="1" source="LsSuy4AF0oOqetUuykuO-64" target="LsSuy4AF0oOqetUuykuO-64" edge="1">
          <mxGeometry width="50" height="50" relative="1" as="geometry">
            <mxPoint x="974.4499999999998" y="613.0899999999999" as="sourcePoint"/>
            <mxPoint x="933.0439999999999" y="616.4889999999999" as="targetPoint"/>
            <Array as="points">
              <mxPoint x="943" y="610"/>
            </Array>
          </mxGeometry>
        </mxCell>
        <mxCell id="LsSuy4AF0oOqetUuykuO-70" value="&lt;div&gt;&lt;font style=&quot;font-size: 9px&quot;&gt;&lt;font style=&quot;font-size: 9px&quot;&gt;frame_buf[] += sampled_bit&lt;br&gt;&lt;/font&gt;&amp;amp;&amp;amp; &lt;/font&gt;&lt;font style=&quot;font-size: 9px&quot;&gt;&lt;font style=&quot;font-size: 9px&quot;&gt;bit_cnt++&lt;/font&gt;&lt;br&gt;&lt;/font&gt;&lt;/div&gt;" style="text;html=1;resizable=0;points=[];align=center;verticalAlign=middle;labelBackgroundColor=#ffffff;" parent="LsSuy4AF0oOqetUuykuO-69" vertex="1" connectable="0">
          <mxGeometry x="-0.4688" y="10" relative="1" as="geometry">
            <mxPoint x="-24" y="32" as="offset"/>
          </mxGeometry>
        </mxCell>
        <mxCell id="LsSuy4AF0oOqetUuykuO-77" value="&lt;div&gt;&lt;u&gt;&lt;font style=&quot;font-size: 9px&quot;&gt;bit_cnt == 18&lt;/font&gt;&lt;/u&gt;&lt;/div&gt;&lt;div&gt;&lt;font style=&quot;font-size: 9px&quot;&gt;RTR = sampled_bit &amp;amp;&amp;amp; read r0, r1&lt;/font&gt;&lt;u&gt;&lt;font style=&quot;font-size: 9px&quot;&gt;&lt;br&gt;&lt;/font&gt;&lt;/u&gt;&lt;/div&gt;" style="text;html=1;resizable=0;points=[];align=center;verticalAlign=middle;labelBackgroundColor=#ffffff;rotation=15;" parent="1" vertex="1" connectable="0">
          <mxGeometry x="-0.1951" y="3" relative="1" as="geometry">
            <mxPoint x="1240" y="650" as="offset"/>
          </mxGeometry>
        </mxCell>
        <mxCell id="LsSuy4AF0oOqetUuykuO-78" value="" style="curved=1;endArrow=classic;html=1;entryX=0;entryY=0.5;entryDx=0;entryDy=0;exitX=0.985;exitY=0.718;exitDx=0;exitDy=0;exitPerimeter=0;" parent="1" source="LsSuy4AF0oOqetUuykuO-64" target="LsSuy4AF0oOqetUuykuO-61" edge="1">
          <mxGeometry width="50" height="50" relative="1" as="geometry">
            <mxPoint x="1310" y="595" as="sourcePoint"/>
            <mxPoint x="1360" y="545" as="targetPoint"/>
            <Array as="points"/>
          </mxGeometry>
        </mxCell>
        <mxCell id="LsSuy4AF0oOqetUuykuO-83" value="" style="curved=1;endArrow=classic;html=1;entryX=1;entryY=0;entryDx=0;entryDy=0;exitX=0;exitY=1;exitDx=0;exitDy=0;" parent="1" source="LsSuy4AF0oOqetUuykuO-61" target="LsSuy4AF0oOqetUuykuO-79" edge="1">
          <mxGeometry width="50" height="50" relative="1" as="geometry">
            <mxPoint x="1042.4159992311074" y="519.9159992311074" as="sourcePoint"/>
            <mxPoint x="1167.5" y="372" as="targetPoint"/>
            <Array as="points"/>
          </mxGeometry>
        </mxCell>
        <mxCell id="LsSuy4AF0oOqetUuykuO-84" value="&lt;div&gt;&lt;u&gt;&lt;font style=&quot;font-size: 9px&quot;&gt;bit_cnt == 4 &amp;amp;&amp;amp; RTR == 0&lt;br&gt;&lt;/font&gt;&lt;/u&gt;&lt;font style=&quot;font-size: 9px&quot;&gt;data_len = DLC&lt;/font&gt;&lt;u&gt;&lt;font style=&quot;font-size: 9px&quot;&gt;&lt;br&gt;&lt;/font&gt;&lt;/u&gt;&lt;/div&gt;" style="text;html=1;resizable=0;points=[];align=center;verticalAlign=middle;labelBackgroundColor=#ffffff;" parent="LsSuy4AF0oOqetUuykuO-83" vertex="1" connectable="0">
          <mxGeometry x="0.1193" y="-16" relative="1" as="geometry">
            <mxPoint x="25" y="41.5" as="offset"/>
          </mxGeometry>
        </mxCell>
        <mxCell id="LsSuy4AF0oOqetUuykuO-87" value="" style="curved=1;endArrow=classic;html=1;entryX=0;entryY=0;entryDx=0;entryDy=0;exitX=1;exitY=1;exitDx=0;exitDy=0;" parent="1" source="LsSuy4AF0oOqetUuykuO-79" target="LsSuy4AF0oOqetUuykuO-85" edge="1">
          <mxGeometry width="50" height="50" relative="1" as="geometry">
            <mxPoint x="1201.4159992311033" y="502.5840007688971" as="sourcePoint"/>
            <mxPoint x="727.5" y="810.5" as="targetPoint"/>
            <Array as="points"/>
          </mxGeometry>
        </mxCell>
        <mxCell id="CigY5o_EXDTEon-3jBMa-3" value="&lt;font style=&quot;font-size: 9px&quot;&gt;len(data_buf) == data_len&lt;br&gt;&lt;/font&gt;" style="text;html=1;resizable=0;points=[];align=center;verticalAlign=middle;labelBackgroundColor=#ffffff;rotation=0;" parent="LsSuy4AF0oOqetUuykuO-87" vertex="1" connectable="0">
          <mxGeometry x="-0.2515" y="-4" relative="1" as="geometry">
            <mxPoint x="41" y="-40" as="offset"/>
          </mxGeometry>
        </mxCell>
        <mxCell id="CigY5o_EXDTEon-3jBMa-1" value="" style="curved=1;endArrow=classic;html=1;exitX=0;exitY=0.5;exitDx=0;exitDy=0;" parent="1" source="LsSuy4AF0oOqetUuykuO-79" target="LsSuy4AF0oOqetUuykuO-79" edge="1">
          <mxGeometry width="50" height="50" relative="1" as="geometry">
            <mxPoint x="1027.4769999999999" y="866.721" as="sourcePoint"/>
            <mxPoint x="1059.5100000000002" y="870.017" as="targetPoint"/>
            <Array as="points">
              <mxPoint x="934.5" y="835.5"/>
              <mxPoint x="944.5" y="875.5"/>
            </Array>
          </mxGeometry>
        </mxCell>
        <mxCell id="CigY5o_EXDTEon-3jBMa-2" value="&lt;font style=&quot;font-size: 9px&quot;&gt;data_buf[] += sampled_bit&lt;br&gt;&lt;/font&gt;" style="text;html=1;resizable=0;points=[];align=center;verticalAlign=middle;labelBackgroundColor=#ffffff;" parent="CigY5o_EXDTEon-3jBMa-1" vertex="1" connectable="0">
          <mxGeometry x="-0.4557" y="-5" relative="1" as="geometry">
            <mxPoint x="-20.5" y="40" as="offset"/>
          </mxGeometry>
        </mxCell>
        <mxCell id="CigY5o_EXDTEon-3jBMa-4" value="" style="curved=1;endArrow=classic;html=1;exitX=1.005;exitY=0.375;exitDx=0;exitDy=0;entryX=1;entryY=0;entryDx=0;entryDy=0;exitPerimeter=0;" parent="1" source="LsSuy4AF0oOqetUuykuO-61" target="LsSuy4AF0oOqetUuykuO-61" edge="1">
          <mxGeometry width="50" height="50" relative="1" as="geometry">
            <mxPoint x="1479.759" y="669.97" as="sourcePoint"/>
            <mxPoint x="1420" y="653" as="targetPoint"/>
            <Array as="points">
              <mxPoint x="1500" y="663"/>
            </Array>
          </mxGeometry>
        </mxCell>
        <mxCell id="CigY5o_EXDTEon-3jBMa-6" value="&lt;font style=&quot;font-size: 9px&quot;&gt;bit_cnt++&lt;/font&gt;" style="text;html=1;resizable=0;points=[];align=center;verticalAlign=middle;labelBackgroundColor=#ffffff;" parent="CigY5o_EXDTEon-3jBMa-4" vertex="1" connectable="0">
          <mxGeometry x="-0.4295" y="11" relative="1" as="geometry">
            <mxPoint x="1" y="-9.5" as="offset"/>
          </mxGeometry>
        </mxCell>
        <mxCell id="CigY5o_EXDTEon-3jBMa-8" value="" style="curved=1;endArrow=classic;html=1;entryX=0.5;entryY=0;entryDx=0;entryDy=0;exitX=0;exitY=0.5;exitDx=0;exitDy=0;" parent="1" source="LsSuy4AF0oOqetUuykuO-48" target="LsSuy4AF0oOqetUuykuO-64" edge="1">
          <mxGeometry width="50" height="50" relative="1" as="geometry">
            <mxPoint x="1120" y="466.5" as="sourcePoint"/>
            <mxPoint x="1070" y="516.5" as="targetPoint"/>
            <Array as="points">
              <mxPoint x="1070" y="466.5"/>
            </Array>
          </mxGeometry>
        </mxCell>
        <mxCell id="CigY5o_EXDTEon-3jBMa-9" value="&lt;div&gt;&lt;font style=&quot;font-size: 9px&quot;&gt;&lt;u&gt;&lt;font style=&quot;font-size: 9px&quot;&gt;IDE == 1&lt;/font&gt;&lt;br&gt;&lt;/u&gt;&lt;/font&gt;&lt;/div&gt;&lt;font style=&quot;font-size: 9px&quot; size=&quot;3&quot;&gt;SRR = rtr_or_srr&lt;/font&gt;" style="text;html=1;resizable=0;points=[];align=center;verticalAlign=middle;labelBackgroundColor=#ffffff;" parent="CigY5o_EXDTEon-3jBMa-8" vertex="1" connectable="0">
          <mxGeometry x="-0.0143" y="12" relative="1" as="geometry">
            <mxPoint x="24.5" y="43" as="offset"/>
          </mxGeometry>
        </mxCell>
        <mxCell id="CigY5o_EXDTEon-3jBMa-10" value="" style="curved=1;endArrow=classic;html=1;exitX=1;exitY=0.5;exitDx=0;exitDy=0;entryX=0.5;entryY=0;entryDx=0;entryDy=0;" parent="1" source="LsSuy4AF0oOqetUuykuO-48" target="LsSuy4AF0oOqetUuykuO-61" edge="1">
          <mxGeometry width="50" height="50" relative="1" as="geometry">
            <mxPoint x="1300" y="490" as="sourcePoint"/>
            <mxPoint x="1250" y="540" as="targetPoint"/>
            <Array as="points">
              <mxPoint x="1410" y="520"/>
            </Array>
          </mxGeometry>
        </mxCell>
        <mxCell id="CigY5o_EXDTEon-3jBMa-11" value="&lt;u&gt;&lt;font style=&quot;font-size: 9px&quot;&gt;IDE == 0&lt;br&gt;&lt;/font&gt;&lt;/u&gt;&lt;font style=&quot;font-size: 9px&quot;&gt;RTR = rtr_or_srr &amp;amp;&amp;amp; read r0 bit&lt;br&gt;&lt;/font&gt;" style="text;html=1;resizable=0;points=[];align=center;verticalAlign=middle;labelBackgroundColor=#ffffff;" parent="CigY5o_EXDTEon-3jBMa-10" vertex="1" connectable="0">
          <mxGeometry x="-0.3072" y="-17" relative="1" as="geometry">
            <mxPoint x="66.5" y="-25.5" as="offset"/>
          </mxGeometry>
        </mxCell>
        <mxCell id="CigY5o_EXDTEon-3jBMa-14" value="" style="curved=1;endArrow=classic;html=1;entryX=0.997;entryY=0.616;entryDx=0;entryDy=0;entryPerimeter=0;" parent="1" source="LsSuy4AF0oOqetUuykuO-85" edge="1" target="LsSuy4AF0oOqetUuykuO-85">
          <mxGeometry width="50" height="50" relative="1" as="geometry">
            <mxPoint x="1731" y="743" as="sourcePoint"/>
            <mxPoint x="1158" y="1000" as="targetPoint"/>
            <Array as="points">
              <mxPoint x="1260" y="980"/>
            </Array>
          </mxGeometry>
        </mxCell>
        <mxCell id="CigY5o_EXDTEon-3jBMa-15" value="&lt;font style=&quot;font-size: 9px&quot;&gt;bit_cnt++&lt;/font&gt;" style="text;html=1;resizable=0;points=[];align=center;verticalAlign=middle;labelBackgroundColor=#ffffff;" parent="CigY5o_EXDTEon-3jBMa-14" vertex="1" connectable="0">
          <mxGeometry x="-0.4141" y="-11" relative="1" as="geometry">
            <mxPoint x="21.5" y="-3" as="offset"/>
          </mxGeometry>
        </mxCell>
        <mxCell id="CigY5o_EXDTEon-3jBMa-20" value="" style="curved=1;endArrow=classic;html=1;exitX=0.5;exitY=1;exitDx=0;exitDy=0;entryX=0.786;entryY=0.078;entryDx=0;entryDy=0;entryPerimeter=0;" parent="1" source="LsSuy4AF0oOqetUuykuO-61" target="LsSuy4AF0oOqetUuykuO-85" edge="1">
          <mxGeometry width="50" height="50" relative="1" as="geometry">
            <mxPoint x="1555.0840007688926" y="640.9159992311074" as="sourcePoint"/>
            <mxPoint x="1498" y="740" as="targetPoint"/>
            <Array as="points"/>
          </mxGeometry>
        </mxCell>
        <mxCell id="CigY5o_EXDTEon-3jBMa-21" value="&lt;u&gt;&lt;font style=&quot;font-size: 9px&quot;&gt;bit_cnt == 4 &amp;amp;&amp;amp; RTR == 1&lt;/font&gt;&lt;/u&gt;&lt;br&gt;&lt;font style=&quot;font-size: 9px&quot;&gt;data_len = DLC&lt;/font&gt;&lt;u&gt;&lt;font style=&quot;font-size: 9px&quot;&gt;&lt;br&gt;&lt;/font&gt;&lt;/u&gt;" style="text;html=1;resizable=0;points=[];align=center;verticalAlign=middle;labelBackgroundColor=#ffffff;" parent="CigY5o_EXDTEon-3jBMa-20" vertex="1" connectable="0">
          <mxGeometry x="-0.1096" y="16" relative="1" as="geometry">
            <mxPoint x="40.5" y="7" as="offset"/>
          </mxGeometry>
        </mxCell>
        <mxCell id="CigY5o_EXDTEon-3jBMa-24" value="" style="curved=1;endArrow=classic;html=1;exitX=0;exitY=0.5;exitDx=0;exitDy=0;entryX=1;entryY=0.5;entryDx=0;entryDy=0;" parent="1" source="CigY5o_EXDTEon-3jBMa-16" edge="1" target="CigY5o_EXDTEon-3jBMa-22">
          <mxGeometry width="50" height="50" relative="1" as="geometry">
            <mxPoint x="460" y="800" as="sourcePoint"/>
            <mxPoint x="391" y="791" as="targetPoint"/>
            <Array as="points"/>
          </mxGeometry>
        </mxCell>
        <mxCell id="CigY5o_EXDTEon-3jBMa-25" value="&lt;div&gt;&lt;span class=&quot;st&quot;&gt;ε&lt;/span&gt;&lt;/div&gt;" style="text;html=1;resizable=0;points=[];align=center;verticalAlign=middle;labelBackgroundColor=#ffffff;" parent="CigY5o_EXDTEon-3jBMa-24" vertex="1" connectable="0">
          <mxGeometry x="0.1821" y="-12" relative="1" as="geometry">
            <mxPoint x="28" y="20.5" as="offset"/>
          </mxGeometry>
        </mxCell>
        <mxCell id="CigY5o_EXDTEon-3jBMa-27" value="" style="curved=1;endArrow=classic;html=1;entryX=0.03;entryY=0.327;entryDx=0;entryDy=0;entryPerimeter=0;" parent="1" target="LsSuy4AF0oOqetUuykuO-23" edge="1">
          <mxGeometry width="50" height="50" relative="1" as="geometry">
            <mxPoint x="193" y="420" as="sourcePoint"/>
            <mxPoint x="180" y="420" as="targetPoint"/>
            <Array as="points">
              <mxPoint x="140" y="410"/>
            </Array>
          </mxGeometry>
        </mxCell>
        <mxCell id="CigY5o_EXDTEon-3jBMa-34" value="" style="curved=1;endArrow=classic;html=1;" parent="1" source="CigY5o_EXDTEon-3jBMa-30" target="CigY5o_EXDTEon-3jBMa-30" edge="1">
          <mxGeometry width="50" height="50" relative="1" as="geometry">
            <mxPoint x="190" y="753" as="sourcePoint"/>
            <mxPoint x="240" y="703" as="targetPoint"/>
            <Array as="points">
              <mxPoint x="240" y="753"/>
            </Array>
          </mxGeometry>
        </mxCell>
        <mxCell id="CigY5o_EXDTEon-3jBMa-35" value="&lt;font style=&quot;font-size: 9px&quot;&gt;recessive_bit_cnt++&lt;/font&gt;" style="text;html=1;resizable=0;points=[];align=center;verticalAlign=middle;labelBackgroundColor=#ffffff;" parent="CigY5o_EXDTEon-3jBMa-34" vertex="1" connectable="0">
          <mxGeometry x="0.1304" y="-4" relative="1" as="geometry">
            <mxPoint x="24" y="19" as="offset"/>
          </mxGeometry>
        </mxCell>
        <mxCell id="CigY5o_EXDTEon-3jBMa-36" value="" style="curved=1;endArrow=classic;html=1;exitX=0.5;exitY=0;exitDx=0;exitDy=0;entryX=0;entryY=1;entryDx=0;entryDy=0;" parent="1" source="CigY5o_EXDTEon-3jBMa-30" target="LsSuy4AF0oOqetUuykuO-23" edge="1">
          <mxGeometry width="50" height="50" relative="1" as="geometry">
            <mxPoint x="60" y="520" as="sourcePoint"/>
            <mxPoint x="110" y="470" as="targetPoint"/>
            <Array as="points">
              <mxPoint x="100" y="460"/>
            </Array>
          </mxGeometry>
        </mxCell>
        <mxCell id="CigY5o_EXDTEon-3jBMa-37" value="&lt;div&gt;&lt;u&gt;&lt;font style=&quot;font-size: 9px&quot;&gt;recessive_bit_cnt == 7&lt;br&gt;&lt;/font&gt;&lt;/u&gt;&lt;font style=&quot;font-size: 9px&quot;&gt;&lt;font style=&quot;font-size: 9px&quot;&gt;recessive_bit_cnt = 0&lt;br&gt;&lt;/font&gt;&lt;/font&gt;&lt;/div&gt;" style="text;html=1;resizable=0;points=[];align=center;verticalAlign=middle;labelBackgroundColor=#ffffff;" parent="CigY5o_EXDTEon-3jBMa-36" vertex="1" connectable="0">
          <mxGeometry x="-0.4815" y="-13" relative="1" as="geometry">
            <mxPoint x="-60.5" y="-2" as="offset"/>
          </mxGeometry>
        </mxCell>
        <mxCell id="1vsY7tQlQi9XiLT0RHJ2-36" value="" style="curved=1;endArrow=classic;html=1;exitX=1;exitY=0.5;exitDx=0;exitDy=0;entryX=0.5;entryY=0;entryDx=0;entryDy=0;" edge="1" parent="1" source="LsSuy4AF0oOqetUuykuO-36" target="LsSuy4AF0oOqetUuykuO-48">
          <mxGeometry width="50" height="50" relative="1" as="geometry">
            <mxPoint x="940" y="350" as="sourcePoint"/>
            <mxPoint x="990" y="300" as="targetPoint"/>
            <Array as="points">
              <mxPoint x="1080" y="250"/>
            </Array>
          </mxGeometry>
        </mxCell>
        <mxCell id="1vsY7tQlQi9XiLT0RHJ2-37" value="&lt;div&gt;&lt;font style=&quot;font-size: 9px&quot;&gt;&lt;u&gt;bit_cnt == 11&lt;br&gt;&lt;/u&gt;rtr_or_srr = sampled_bit &amp;amp;&amp;amp; bit_cnt = 0&lt;br&gt;&lt;/font&gt;&lt;/div&gt;" style="text;html=1;resizable=0;points=[];align=center;verticalAlign=middle;labelBackgroundColor=#ffffff;" vertex="1" connectable="0" parent="1vsY7tQlQi9XiLT0RHJ2-36">
          <mxGeometry x="0.3223" y="-23" relative="1" as="geometry">
            <mxPoint x="10" y="-73" as="offset"/>
          </mxGeometry>
        </mxCell>
        <mxCell id="1vsY7tQlQi9XiLT0RHJ2-41" value="" style="curved=1;endArrow=classic;html=1;exitX=0.5;exitY=0;exitDx=0;exitDy=0;entryX=0.039;entryY=0.689;entryDx=0;entryDy=0;entryPerimeter=0;" edge="1" parent="1" source="1vsY7tQlQi9XiLT0RHJ2-1" target="LsSuy4AF0oOqetUuykuO-36">
          <mxGeometry width="50" height="50" relative="1" as="geometry">
            <mxPoint x="680" y="483" as="sourcePoint"/>
            <mxPoint x="730" y="433" as="targetPoint"/>
            <Array as="points">
              <mxPoint x="720" y="360"/>
            </Array>
          </mxGeometry>
        </mxCell>
        <mxCell id="1vsY7tQlQi9XiLT0RHJ2-70" value="&lt;font style=&quot;font-size: 9px&quot;&gt;consec_same_polarity_bits &amp;lt; 6&lt;/font&gt;" style="text;html=1;resizable=0;points=[];align=center;verticalAlign=middle;labelBackgroundColor=#ffffff;rotation=-60;" vertex="1" connectable="0" parent="1vsY7tQlQi9XiLT0RHJ2-41">
          <mxGeometry x="0.0513" y="-16" relative="1" as="geometry">
            <mxPoint x="-5" y="35.5" as="offset"/>
          </mxGeometry>
        </mxCell>
        <mxCell id="1vsY7tQlQi9XiLT0RHJ2-43" value="" style="curved=1;endArrow=classic;html=1;exitX=0.097;exitY=0.786;exitDx=0;exitDy=0;entryX=0.641;entryY=0.029;entryDx=0;entryDy=0;entryPerimeter=0;exitPerimeter=0;" edge="1" parent="1" source="LsSuy4AF0oOqetUuykuO-36" target="1vsY7tQlQi9XiLT0RHJ2-1">
          <mxGeometry width="50" height="50" relative="1" as="geometry">
            <mxPoint x="882.517" y="279.9670000000001" as="sourcePoint"/>
            <mxPoint x="720" y="549" as="targetPoint"/>
            <Array as="points">
              <mxPoint x="820" y="430"/>
            </Array>
          </mxGeometry>
        </mxCell>
        <mxCell id="1vsY7tQlQi9XiLT0RHJ2-44" value="&lt;font style=&quot;font-size: 9px&quot;&gt;consec_same_polarity_bits == 5&lt;/font&gt;" style="text;html=1;resizable=0;points=[];align=center;verticalAlign=middle;labelBackgroundColor=#ffffff;rotation=-60;" vertex="1" connectable="0" parent="1vsY7tQlQi9XiLT0RHJ2-43">
          <mxGeometry x="0.0723" y="-19" relative="1" as="geometry">
            <mxPoint x="30" y="-35.5" as="offset"/>
          </mxGeometry>
        </mxCell>
        <mxCell id="1vsY7tQlQi9XiLT0RHJ2-45" value="" style="curved=1;endArrow=classic;html=1;exitX=0.054;exitY=0.254;exitDx=0;exitDy=0;entryX=1;entryY=0;entryDx=0;entryDy=0;exitPerimeter=0;" edge="1" parent="1" source="LsSuy4AF0oOqetUuykuO-48" target="1vsY7tQlQi9XiLT0RHJ2-1">
          <mxGeometry width="50" height="50" relative="1" as="geometry">
            <mxPoint x="930" y="430" as="sourcePoint"/>
            <mxPoint x="880" y="480" as="targetPoint"/>
            <Array as="points">
              <mxPoint x="920" y="450"/>
            </Array>
          </mxGeometry>
        </mxCell>
        <mxCell id="1vsY7tQlQi9XiLT0RHJ2-48" value="&lt;font style=&quot;font-size: 9px&quot;&gt;consec_same_polarity_bits == 5&lt;/font&gt;" style="text;html=1;resizable=0;points=[];align=center;verticalAlign=middle;labelBackgroundColor=#ffffff;rotation=-15;" vertex="1" connectable="0" parent="1vsY7tQlQi9XiLT0RHJ2-45">
          <mxGeometry x="-0.0251" y="21" relative="1" as="geometry">
            <mxPoint x="73" y="-43.5" as="offset"/>
          </mxGeometry>
        </mxCell>
        <mxCell id="1vsY7tQlQi9XiLT0RHJ2-49" value="" style="curved=1;endArrow=classic;html=1;exitX=0.914;exitY=0.23;exitDx=0;exitDy=0;entryX=0.027;entryY=0.394;entryDx=0;entryDy=0;entryPerimeter=0;exitPerimeter=0;" edge="1" parent="1" source="1vsY7tQlQi9XiLT0RHJ2-1" target="LsSuy4AF0oOqetUuykuO-48">
          <mxGeometry width="50" height="50" relative="1" as="geometry">
            <mxPoint x="870" y="520" as="sourcePoint"/>
            <mxPoint x="920" y="470" as="targetPoint"/>
            <Array as="points">
              <mxPoint x="930" y="500"/>
            </Array>
          </mxGeometry>
        </mxCell>
        <mxCell id="1vsY7tQlQi9XiLT0RHJ2-71" value="&lt;font style=&quot;font-size: 9px&quot;&gt;consec_same_polarity_bits &amp;lt; 6&lt;/font&gt;" style="text;html=1;resizable=0;points=[];align=center;verticalAlign=middle;labelBackgroundColor=#ffffff;rotation=-15;" vertex="1" connectable="0" parent="1vsY7tQlQi9XiLT0RHJ2-49">
          <mxGeometry x="0.0188" y="1" relative="1" as="geometry">
            <mxPoint x="39.5" y="8.5" as="offset"/>
          </mxGeometry>
        </mxCell>
        <mxCell id="1vsY7tQlQi9XiLT0RHJ2-52" value="" style="curved=1;endArrow=classic;html=1;exitX=0;exitY=0;exitDx=0;exitDy=0;" edge="1" parent="1" source="LsSuy4AF0oOqetUuykuO-64" target="1vsY7tQlQi9XiLT0RHJ2-1">
          <mxGeometry width="50" height="50" relative="1" as="geometry">
            <mxPoint x="810" y="610" as="sourcePoint"/>
            <mxPoint x="860" y="560" as="targetPoint"/>
            <Array as="points">
              <mxPoint x="860" y="540"/>
            </Array>
          </mxGeometry>
        </mxCell>
        <mxCell id="1vsY7tQlQi9XiLT0RHJ2-55" value="&lt;font style=&quot;font-size: 9px&quot;&gt;consec_same_polarity_bits == 5&lt;/font&gt;" style="text;html=1;resizable=0;points=[];align=center;verticalAlign=middle;labelBackgroundColor=#ffffff;" vertex="1" connectable="0" parent="1vsY7tQlQi9XiLT0RHJ2-52">
          <mxGeometry x="-0.2965" y="9" relative="1" as="geometry">
            <mxPoint x="-2.5" y="-6.5" as="offset"/>
          </mxGeometry>
        </mxCell>
        <mxCell id="1vsY7tQlQi9XiLT0RHJ2-53" value="" style="curved=1;endArrow=classic;html=1;exitX=1.001;exitY=0.411;exitDx=0;exitDy=0;exitPerimeter=0;entryX=0.069;entryY=0.261;entryDx=0;entryDy=0;entryPerimeter=0;" edge="1" parent="1" source="1vsY7tQlQi9XiLT0RHJ2-1" target="LsSuy4AF0oOqetUuykuO-64">
          <mxGeometry width="50" height="50" relative="1" as="geometry">
            <mxPoint x="702.8995021187827" y="601.4418685808882" as="sourcePoint"/>
            <mxPoint x="1018.5840007688878" y="582.584000768888" as="targetPoint"/>
            <Array as="points">
              <mxPoint x="862" y="601"/>
            </Array>
          </mxGeometry>
        </mxCell>
        <mxCell id="1vsY7tQlQi9XiLT0RHJ2-72" value="&lt;font style=&quot;font-size: 9px&quot;&gt;consec_same_polarity_bits &amp;lt; 6&lt;/font&gt;" style="text;html=1;resizable=0;points=[];align=center;verticalAlign=middle;labelBackgroundColor=#ffffff;rotation=0;" vertex="1" connectable="0" parent="1vsY7tQlQi9XiLT0RHJ2-53">
          <mxGeometry x="0.1888" y="1" relative="1" as="geometry">
            <mxPoint x="-81.5" y="32.5" as="offset"/>
          </mxGeometry>
        </mxCell>
        <mxCell id="1vsY7tQlQi9XiLT0RHJ2-59" value="" style="curved=1;endArrow=classic;html=1;exitX=0.951;exitY=0.689;exitDx=0;exitDy=0;entryX=0.027;entryY=0.663;entryDx=0;entryDy=0;entryPerimeter=0;exitPerimeter=0;" edge="1" parent="1" source="1vsY7tQlQi9XiLT0RHJ2-1" target="LsSuy4AF0oOqetUuykuO-61">
          <mxGeometry width="50" height="50" relative="1" as="geometry">
            <mxPoint x="692.8995021187827" y="678.9418685808882" as="sourcePoint"/>
            <mxPoint x="1008.5840007688878" y="660.084000768888" as="targetPoint"/>
            <Array as="points">
              <mxPoint x="950" y="680"/>
            </Array>
          </mxGeometry>
        </mxCell>
        <mxCell id="1vsY7tQlQi9XiLT0RHJ2-60" value="&lt;font style=&quot;font-size: 9px&quot;&gt;consec_same_polarity_bits == 5&lt;/font&gt;" style="text;html=1;resizable=0;points=[];align=center;verticalAlign=middle;labelBackgroundColor=#ffffff;" vertex="1" connectable="0" parent="1vsY7tQlQi9XiLT0RHJ2-59">
          <mxGeometry x="-0.2965" y="9" relative="1" as="geometry">
            <mxPoint x="179.5" y="70" as="offset"/>
          </mxGeometry>
        </mxCell>
        <mxCell id="1vsY7tQlQi9XiLT0RHJ2-74" value="&lt;font style=&quot;font-size: 9px&quot;&gt;consec_same_polarity_bits &amp;lt; 6&lt;/font&gt;" style="text;html=1;resizable=0;points=[];align=center;verticalAlign=middle;labelBackgroundColor=#ffffff;rotation=0;direction=south;" vertex="1" connectable="0" parent="1vsY7tQlQi9XiLT0RHJ2-59">
          <mxGeometry x="0.1212" y="14" relative="1" as="geometry">
            <mxPoint x="-105" y="22" as="offset"/>
          </mxGeometry>
        </mxCell>
        <mxCell id="1vsY7tQlQi9XiLT0RHJ2-61" value="" style="curved=1;endArrow=classic;html=1;entryX=0.933;entryY=0.76;entryDx=0;entryDy=0;exitX=0.054;exitY=0.75;exitDx=0;exitDy=0;exitPerimeter=0;entryPerimeter=0;" edge="1" parent="1" source="LsSuy4AF0oOqetUuykuO-61" target="1vsY7tQlQi9XiLT0RHJ2-1">
          <mxGeometry width="50" height="50" relative="1" as="geometry">
            <mxPoint x="800" y="710" as="sourcePoint"/>
            <mxPoint x="750" y="760" as="targetPoint"/>
            <Array as="points">
              <mxPoint x="890" y="740"/>
            </Array>
          </mxGeometry>
        </mxCell>
        <mxCell id="1vsY7tQlQi9XiLT0RHJ2-63" value="" style="curved=1;endArrow=classic;html=1;exitX=0.09;exitY=0.22;exitDx=0;exitDy=0;entryX=0.718;entryY=0.948;entryDx=0;entryDy=0;entryPerimeter=0;exitPerimeter=0;" edge="1" parent="1" source="LsSuy4AF0oOqetUuykuO-79" target="1vsY7tQlQi9XiLT0RHJ2-1">
          <mxGeometry width="50" height="50" relative="1" as="geometry">
            <mxPoint x="1027.0840007688926" y="820.0840007688926" as="sourcePoint"/>
            <mxPoint x="652.4839999999999" y="655.953" as="targetPoint"/>
            <Array as="points">
              <mxPoint x="840" y="810"/>
            </Array>
          </mxGeometry>
        </mxCell>
        <mxCell id="1vsY7tQlQi9XiLT0RHJ2-65" value="&lt;font style=&quot;font-size: 9px&quot;&gt;consec_same_polarity_bits == 5&lt;/font&gt;" style="text;html=1;resizable=0;points=[];align=center;verticalAlign=middle;labelBackgroundColor=#ffffff;rotation=15;" vertex="1" connectable="0" parent="1vsY7tQlQi9XiLT0RHJ2-63">
          <mxGeometry x="-0.253" y="-18" relative="1" as="geometry">
            <mxPoint x="-28" y="6.5" as="offset"/>
          </mxGeometry>
        </mxCell>
        <mxCell id="1vsY7tQlQi9XiLT0RHJ2-64" value="" style="curved=1;endArrow=classic;html=1;entryX=0.209;entryY=0.097;entryDx=0;entryDy=0;entryPerimeter=0;exitX=0.767;exitY=0.922;exitDx=0;exitDy=0;exitPerimeter=0;" edge="1" parent="1" source="1vsY7tQlQi9XiLT0RHJ2-1" target="LsSuy4AF0oOqetUuykuO-79">
          <mxGeometry width="50" height="50" relative="1" as="geometry">
            <mxPoint x="665" y="640" as="sourcePoint"/>
            <mxPoint x="960" y="740" as="targetPoint"/>
            <Array as="points">
              <mxPoint x="870" y="710"/>
            </Array>
          </mxGeometry>
        </mxCell>
        <mxCell id="1vsY7tQlQi9XiLT0RHJ2-75" value="&lt;font style=&quot;font-size: 9px&quot;&gt;consec_same_polarity_bits &amp;lt; 6&lt;/font&gt;" style="text;html=1;resizable=0;points=[];align=center;verticalAlign=middle;labelBackgroundColor=#ffffff;rotation=15;direction=south;" vertex="1" connectable="0" parent="1vsY7tQlQi9XiLT0RHJ2-64">
          <mxGeometry x="0.2267" y="-12" relative="1" as="geometry">
            <mxPoint x="-43" y="4" as="offset"/>
          </mxGeometry>
        </mxCell>
        <mxCell id="1vsY7tQlQi9XiLT0RHJ2-66" value="" style="curved=1;endArrow=classic;html=1;entryX=0.5;entryY=1;entryDx=0;entryDy=0;exitX=0.026;exitY=0.351;exitDx=0;exitDy=0;exitPerimeter=0;" edge="1" parent="1" source="LsSuy4AF0oOqetUuykuO-85" target="1vsY7tQlQi9XiLT0RHJ2-1">
          <mxGeometry width="50" height="50" relative="1" as="geometry">
            <mxPoint x="580" y="760" as="sourcePoint"/>
            <mxPoint x="630" y="710" as="targetPoint"/>
            <Array as="points">
              <mxPoint x="820" y="930"/>
            </Array>
          </mxGeometry>
        </mxCell>
        <mxCell id="1vsY7tQlQi9XiLT0RHJ2-67" value="&lt;font style=&quot;font-size: 9px&quot;&gt;consec_same_polarity_bits == 5&lt;/font&gt;" style="text;html=1;resizable=0;points=[];align=center;verticalAlign=middle;labelBackgroundColor=#ffffff;rotation=15;" vertex="1" connectable="0" parent="1vsY7tQlQi9XiLT0RHJ2-66">
          <mxGeometry x="-0.0444" y="-59" relative="1" as="geometry">
            <mxPoint x="219.5" y="87" as="offset"/>
          </mxGeometry>
        </mxCell>
        <mxCell id="1vsY7tQlQi9XiLT0RHJ2-68" value="" style="curved=1;endArrow=classic;html=1;exitX=0.388;exitY=0.981;exitDx=0;exitDy=0;exitPerimeter=0;" edge="1" parent="1" source="1vsY7tQlQi9XiLT0RHJ2-1">
          <mxGeometry width="50" height="50" relative="1" as="geometry">
            <mxPoint x="640" y="830" as="sourcePoint"/>
            <mxPoint x="1189" y="1014" as="targetPoint"/>
            <Array as="points">
              <mxPoint x="760" y="1000"/>
            </Array>
          </mxGeometry>
        </mxCell>
        <mxCell id="1vsY7tQlQi9XiLT0RHJ2-77" value="&lt;font style=&quot;font-size: 9px&quot;&gt;consec_same_polarity_bits &amp;lt; 6&lt;/font&gt;" style="text;html=1;resizable=0;points=[];align=center;verticalAlign=middle;labelBackgroundColor=#ffffff;rotation=30;" vertex="1" connectable="0" parent="1vsY7tQlQi9XiLT0RHJ2-68">
          <mxGeometry x="-0.3426" y="61" relative="1" as="geometry">
            <mxPoint x="3.5" y="14.5" as="offset"/>
          </mxGeometry>
        </mxCell>
      </root>
    </mxGraphModel>
  </diagram>
</mxfile>
